<svg width="64" height="64" viewBox="0 0 64 64" fill="none" xmlns="http://www.w3.org/2000/svg">
<g clip-path="url(#clip0_535_308)">
<path d="M40.888 46.2223C40.888 46.6938 40.7007 47.146 40.3673 47.4794C40.0339 47.8128 39.5817 48.0001 39.1102 48.0001H14.2214C13.8302 48.0001 13.4569 48.3557 13.1369 48.5868L7.11024 53.3334V24.889C7.11024 24.4175 7.29754 23.9653 7.63094 23.6319C7.96434 23.2985 8.41652 23.1112 8.88802 23.1112H15.7502V19.5557H8.88802C7.47353 19.5557 6.11698 20.1176 5.11678 21.1178C4.11659 22.118 3.55469 23.4745 3.55469 24.889V56.889C3.55733 57.2192 3.65187 57.5421 3.82771 57.8215C4.00355 58.101 4.25374 58.326 4.55024 58.4712C4.83589 58.6011 5.15084 58.6531 5.46309 58.6219C5.77533 58.5907 6.07375 58.4773 6.32802 58.2934L15.4836 51.5557H39.3769C40.0507 51.5756 40.7214 51.457 41.3475 51.2071C41.9736 50.9573 42.5417 50.5816 43.0167 50.1033C43.4917 49.625 43.8634 49.0542 44.1088 48.4264C44.3543 47.7986 44.4682 47.1271 44.4436 46.4534V44.4446H40.888V46.2223Z" fill="#FDFDFF"/>
<path d="M55.1102 7.11133H24.888C23.4735 7.11133 22.117 7.67323 21.1168 8.67343C20.1166 9.67362 19.5547 11.0302 19.5547 12.4447V33.778C19.5547 35.1925 20.1166 36.549 21.1168 37.5492C22.117 38.5494 23.4735 39.1113 24.888 39.1113H48.9769L57.4747 45.7069C57.7273 45.8937 58.0249 46.0102 58.3372 46.0445C58.6495 46.0789 58.9653 46.0298 59.2525 45.9024C59.555 45.7584 59.8106 45.5317 59.9899 45.2486C60.1692 44.9655 60.2649 44.6375 60.2658 44.3024V12.4447C60.2666 11.0604 59.7291 9.73015 58.7671 8.73491C57.805 7.73968 56.4937 7.15747 55.1102 7.11133ZM56.888 40.7824L50.6658 35.9291C50.3555 35.6883 49.9742 35.557 49.5814 35.5558H24.888C24.4165 35.5558 23.9643 35.3685 23.6309 35.0351C23.2975 34.7017 23.1102 34.2495 23.1102 33.778V12.4447C23.1102 11.9732 23.2975 11.521 23.6309 11.1876C23.9643 10.8542 24.4165 10.6669 24.888 10.6669H55.1102C55.5855 10.71 56.0285 10.9254 56.3559 11.2725C56.6834 11.6196 56.8726 12.0744 56.888 12.5513V40.7824Z" fill="#FDFDFF"/>
</g>
<defs>
<clipPath id="clip0_535_308">
<rect width="64" height="64" fill="white"/>
</clipPath>
</defs>
</svg>
