<svg width="64" height="65" viewBox="0 0 64 65" fill="none" xmlns="http://www.w3.org/2000/svg">
<path d="M32 18.5H56M8 18.5H18M18 18.5C18 20.6217 18.8429 22.6566 20.3431 24.1569C21.8434 25.6571 23.8783 26.5 26 26.5C28.1217 26.5 30.1566 25.6571 31.6569 24.1569C33.1571 22.6566 34 20.6217 34 18.5C34 16.3783 33.1571 14.3434 31.6569 12.8431C30.1566 11.3429 28.1217 10.5 26 10.5C23.8783 10.5 21.8434 11.3429 20.3431 12.8431C18.8429 14.3434 18 16.3783 18 18.5ZM8 46.5H32M46 46.5H56M46 46.5C46 48.6217 45.1571 50.6566 43.6569 52.1569C42.1566 53.6571 40.1217 54.5 38 54.5C35.8783 54.5 33.8434 53.6571 32.3431 52.1569C30.8429 50.6566 30 48.6217 30 46.5C30 44.3783 30.8429 42.3434 32.3431 40.8431C33.8434 39.3429 35.8783 38.5 38 38.5C40.1217 38.5 42.1566 39.3429 43.6569 40.8431C45.1571 42.3434 46 44.3783 46 46.5Z" stroke="#FDFDFF" stroke-width="4"/>
</svg>
