<svg width="65" height="64" viewBox="0 0 65 64" fill="none" xmlns="http://www.w3.org/2000/svg">
<path d="M38.5 4C36.9087 4 35.3826 4.63214 34.2574 5.75736C33.1321 6.88258 32.5 8.4087 32.5 10V18C32.5002 19.2406 32.8849 20.4507 33.6013 21.4636C34.3176 22.4765 35.3303 23.2425 36.5 23.656V28C36.5001 28.38 36.6086 28.7522 36.8125 29.0728C37.0165 29.3934 37.3076 29.6493 37.6518 29.8105C37.996 29.9717 38.3789 30.0314 38.7558 29.9828C39.1327 29.9342 39.488 29.7792 39.78 29.536L46.42 24H54.5C56.0913 24 57.6174 23.3679 58.7426 22.2426C59.8679 21.1174 60.5 19.5913 60.5 18V10C60.5 8.4087 59.8679 6.88258 58.7426 5.75736C57.6174 4.63214 56.0913 4 54.5 4H38.5ZM36.5 10C36.5 9.46957 36.7107 8.96086 37.0858 8.58579C37.4609 8.21071 37.9696 8 38.5 8H54.5C55.0304 8 55.5391 8.21071 55.9142 8.58579C56.2893 8.96086 56.5 9.46957 56.5 10V18C56.5 18.5304 56.2893 19.0391 55.9142 19.4142C55.5391 19.7893 55.0304 20 54.5 20H45.7C45.2322 20.0002 44.7793 20.1644 44.42 20.464L40.5 23.728V22C40.5 21.4696 40.2893 20.9609 39.9142 20.5858C39.5391 20.2107 39.0304 20 38.5 20C37.9696 20 37.4609 19.7893 37.0858 19.4142C36.7107 19.0391 36.5 18.5304 36.5 18V10ZM12.5 24C12.5 21.8783 13.3429 19.8434 14.8431 18.3431C16.3434 16.8429 18.3783 16 20.5 16C22.6217 16 24.6566 16.8429 26.1569 18.3431C27.6571 19.8434 28.5 21.8783 28.5 24C28.5 26.1217 27.6571 28.1566 26.1569 29.6569C24.6566 31.1571 22.6217 32 20.5 32C18.3783 32 16.3434 31.1571 14.8431 29.6569C13.3429 28.1566 12.5 26.1217 12.5 24ZM20.5 20C19.4391 20 18.4217 20.4214 17.6716 21.1716C16.9214 21.9217 16.5 22.9391 16.5 24C16.5 25.0609 16.9214 26.0783 17.6716 26.8284C18.4217 27.5786 19.4391 28 20.5 28C21.5609 28 22.5783 27.5786 23.3284 26.8284C24.0786 26.0783 24.5 25.0609 24.5 24C24.5 22.9391 24.0786 21.9217 23.3284 21.1716C22.5783 20.4214 21.5609 20 20.5 20ZM10.5 36H30.5C32.0913 36 33.6174 36.6321 34.7426 37.7574C35.8679 38.8826 36.5 40.4087 36.5 42C36.5 46.464 34.664 50.04 31.652 52.46C28.688 54.84 24.712 56 20.5 56C16.288 56 12.312 54.84 9.348 52.46C6.34 50.04 4.5 46.464 4.5 42C4.5 40.4087 5.13214 38.8826 6.25736 37.7574C7.38258 36.6321 8.9087 36 10.5 36ZM30.5 40H10.5C9.96957 40 9.46086 40.2107 9.08579 40.5858C8.71071 40.9609 8.5 41.4696 8.5 42C8.5 45.268 9.8 47.692 11.852 49.34C13.956 51.028 16.98 52 20.5 52C24.02 52 27.044 51.028 29.148 49.34C31.2 47.692 32.5 45.268 32.5 42C32.5 41.4696 32.2893 40.9609 31.9142 40.5858C31.5391 40.2107 31.0304 40 30.5 40Z" fill="#FDFDFF"/>
</svg>
