<svg width="64" height="64" viewBox="0 0 64 64" fill="none" xmlns="http://www.w3.org/2000/svg">
<path d="M40 50H54V54H40V50ZM44 58H50V62H44V58ZM54 46H50C50 43.8 50.8 42 52.4 40.4L53.4 39.4C55 37.8 56 35.4 56 33C56 28 52 24 47 24C42 24 38 28 38 33C38 35.4 39 37.6 40.6 39.4L41.6 40.4C43.2 42 44 43.8 44 46H40C40 45 39.6 44 38.8 43.2L37.8 42.2C35.4 39.8 34 36.4 34 33C34 25.8 39.8 20 47 20C54.2 20 60 25.8 60 33C60 36.4 58.6 39.8 56.2 42.2L55.2 43.2C54.4 44 54 45 54 46ZM12 44H28V48H12V44Z" fill="#FDFDFF"/>
<path d="M24 40C25.1046 40 26 39.1046 26 38C26 36.8954 25.1046 36 24 36C22.8954 36 22 36.8954 22 38C22 39.1046 22.8954 40 24 40Z" fill="#FDFDFF"/>
<path d="M12 36H18V40H12V36ZM12 28H26V32H12V28ZM20 20H34V24H20V20Z" fill="#FDFDFF"/>
<path d="M14 24C15.1046 24 16 23.1046 16 22C16 20.8954 15.1046 20 14 20C12.8954 20 12 20.8954 12 22C12 23.1046 12.8954 24 14 24Z" fill="#FDFDFF"/>
<path d="M32 12H40V16H32V12Z" fill="#FDFDFF"/>
<path d="M26 16C27.1046 16 28 15.1046 28 14C28 12.8954 27.1046 12 26 12C24.8954 12 24 12.8954 24 14C24 15.1046 24.8954 16 26 16Z" fill="#FDFDFF"/>
<path d="M12 12H20V16H12V12Z" fill="#FDFDFF"/>
<path d="M36 56H8V8H44V16H48V8C48 5.8 46.2 4 44 4H8C5.8 4 4 5.8 4 8V56C4 58.2 5.8 60 8 60H36V56Z" fill="#FDFDFF"/>
</svg>
