<svg width="65" height="64" viewBox="0 0 65 64" fill="none" xmlns="http://www.w3.org/2000/svg">
<path fill-rule="evenodd" clip-rule="evenodd" d="M22.5 48C22.5 47.4696 22.7107 46.9609 23.0858 46.5858C23.4609 46.2107 23.9696 46 24.5 46H40.5C41.0304 46 41.5391 46.2107 41.9142 46.5858C42.2893 46.9609 42.5 47.4696 42.5 48C42.5 48.5304 42.2893 49.0391 41.9142 49.4142C41.5391 49.7893 41.0304 50 40.5 50H24.5C23.9696 50 23.4609 49.7893 23.0858 49.4142C22.7107 49.0391 22.5 48.5304 22.5 48Z" fill="#FDFDFF"/>
<path fill-rule="evenodd" clip-rule="evenodd" d="M23.7001 3.33301H41.3001C41.8868 3.33301 42.3375 3.33301 42.7295 3.37567C44.4693 3.56205 46.0852 4.3644 47.2852 5.63783C48.4853 6.91126 49.1905 8.57184 49.2735 10.3197C50.8378 10.7922 52.2115 11.7497 53.196 13.054C54.1806 14.3583 54.725 15.9417 54.7508 17.5757C56.3535 18.0557 57.7375 18.8157 58.8681 20.037C60.6068 21.917 61.1455 24.229 61.1668 26.933C61.1855 29.533 60.7241 32.8183 60.1481 36.8957L58.9748 45.1997C58.5268 48.389 58.1615 50.981 57.5935 53.0103C56.9988 55.1357 56.1215 56.8823 54.5001 58.2263C52.8895 59.5597 50.9801 60.133 48.7241 60.405C46.5401 60.6663 43.7935 60.6663 40.3775 60.6663H24.6228C21.2041 60.6663 18.4574 60.6663 16.2761 60.405C14.0174 60.133 12.1081 59.5597 10.4974 58.2263C8.87612 56.8823 7.99878 55.133 7.40412 53.0103C6.83612 50.981 6.47078 48.389 6.02011 45.197L4.84945 36.8957C4.27612 32.8157 3.80945 29.533 3.83078 26.933C3.85211 24.229 4.39078 21.917 6.12945 20.037C7.26012 18.8157 8.64145 18.0583 10.2441 17.5757C10.2706 15.9419 10.8157 14.3587 11.8008 13.055C12.7858 11.7512 14.1597 10.7942 15.7241 10.3223C15.8064 8.57404 16.5113 6.91282 17.7115 5.63884C18.9116 4.36486 20.5278 3.56213 22.2681 3.37567C22.6601 3.33301 23.1108 3.33301 23.6948 3.33301M14.3348 16.8743C16.8041 16.6663 19.8281 16.6663 23.4734 16.6663H41.5214C45.1641 16.6663 48.1881 16.6663 50.6601 16.8743C50.4768 16.057 50.0202 15.3267 49.3656 14.804C48.711 14.2813 47.8978 13.9976 47.0601 13.9997H17.9374C16.1534 13.9997 14.7054 15.253 14.3401 16.8743M42.3054 7.35434C43.7721 7.50901 44.9321 8.60234 45.2174 9.99967H19.7854C19.9269 9.30636 20.2854 8.67605 20.8089 8.19999C21.3324 7.72394 21.9938 7.42683 22.6974 7.35167C22.8468 7.33567 23.0601 7.33301 23.8094 7.33301H41.1908C41.9374 7.33301 42.1508 7.33567 42.3028 7.35167M9.06812 22.7517C9.87612 21.8797 11.0894 21.301 13.4494 20.9863C15.8521 20.6663 19.0708 20.6637 23.6254 20.6637H41.3748C45.9294 20.6637 49.1481 20.669 51.5508 20.9863C53.9108 21.301 55.1241 21.8797 55.9321 22.7517C56.7215 23.605 57.1508 24.765 57.1668 26.9623C57.1828 29.229 56.7668 32.2157 56.1641 36.4983L55.0361 44.4983C54.5615 47.861 54.2308 50.1863 53.7428 51.9303C53.2708 53.6103 52.7188 54.5037 51.9481 55.141C51.1668 55.7917 50.1161 56.2077 48.2468 56.4317C46.3295 56.661 43.8254 56.6637 40.2468 56.6637H24.7534C21.1748 56.6637 18.6708 56.661 16.7534 56.4317C14.8868 56.205 13.8334 55.7917 13.0521 55.1437C12.2814 54.5037 11.7294 53.6077 11.2574 51.9303C10.7694 50.1863 10.4388 47.861 9.96412 44.4983L8.83612 36.4983C8.23345 32.2183 7.81745 29.229 7.83345 26.9623C7.84945 24.765 8.27878 23.6023 9.06812 22.7517Z" fill="#FDFDFF"/>
</svg>
