<svg width="64" height="64" viewBox="0 0 64 64" fill="none" xmlns="http://www.w3.org/2000/svg">
<path d="M39.5201 4.04C40.4784 4.01333 41.5273 4 42.6668 4C42.6668 4 44.0001 6.66667 44.0001 14.6667C44.0001 14.9938 43.9979 15.312 43.9935 15.6213C48.1441 17.7467 51.3201 21.276 53.0908 25.6707C54.2792 25.5061 55.4748 25.3988 56.6735 25.3493C58.3668 25.288 59.7001 26.5627 59.8295 28.2547C59.9228 29.4947 60.0001 31.1733 60.0001 33.3333C60.0001 35.4933 59.9228 37.1707 59.8295 38.4133C59.7015 40.1027 58.3668 41.3787 56.6735 41.3173C55.7581 41.2815 54.8445 41.2095 53.9348 41.1013C53.1708 44.028 51.8295 46.6587 50.0161 48.8627C50.8017 50.571 51.5561 52.2935 52.2788 54.0293C52.9281 55.5853 52.4988 57.3813 51.1535 58.3973C50.5935 58.82 50.0148 59.228 49.5281 59.5067C49.0321 59.7907 48.3655 60.092 47.7015 60.3653C46.1628 61 44.4188 60.4827 43.3975 59.1667C42.5575 58.0827 41.4855 56.6733 40.3681 55.1333C38.6491 55.6172 36.8761 55.8833 35.0908 55.9253C33.3281 55.9742 31.409 55.9991 29.3335 56C26.2201 56.0013 25.3401 55.9733 23.5761 55.9253C21.7908 55.8833 20.0178 55.6172 18.2988 55.1333C17.3106 56.4939 16.3007 57.8385 15.2695 59.1667C14.2481 60.4827 12.5041 61 10.9655 60.3667C10.3404 60.1157 9.73047 59.8286 9.13881 59.5067C8.57432 59.1706 8.03107 58.8002 7.51214 58.3973C6.16814 57.3813 5.73881 55.5853 6.38814 54.0293C6.97214 52.628 7.76147 50.792 8.64947 48.8627C5.72014 45.3027 4.02281 40.6267 4.00147 35.3867C3.99951 34.9067 3.99951 34.4267 4.00147 33.9467C4.04947 22.4813 12.1148 13.7213 23.5761 13.408C25.3388 13.3591 27.2579 13.3342 29.3335 13.3333H29.4068C29.9895 8.05467 34.0268 4.18933 39.5201 4.04Z" stroke="#FDFDFF" stroke-width="4" stroke-linecap="round" stroke-linejoin="round"/>
<path d="M15.3327 24.6549C17.698 22.2775 21.0433 20.8055 24.9727 20.7042C25.5913 20.6864 26.2376 20.674 26.9113 20.6669M41.3327 24.0002V25.3335M9.52335 18.6669C5.90068 18.6669 2.66602 15.6602 2.66602 11.9509C2.66602 8.24153 5.90068 5.23486 9.52335 5.23486C12.9527 5.23486 14.666 7.06553 14.666 8.89753" stroke="#FDFDFF" stroke-width="4" stroke-linecap="round" stroke-linejoin="round"/>
</svg>
