<svg width="65" height="64" viewBox="0 0 65 64" fill="none" xmlns="http://www.w3.org/2000/svg">
<path d="M60.5 39.9998C60.504 37.9971 60.0068 36.0253 59.0536 34.264C58.1003 32.5027 56.7215 31.008 55.0426 29.916C53.3637 28.8241 51.4383 28.1698 49.4418 28.0126C47.4453 27.8554 45.4411 28.2004 43.6121 29.0162C41.7831 29.8319 40.1873 31.0925 38.9702 32.6829C37.7531 34.2734 36.9534 36.1431 36.6441 38.1218C36.3347 40.1005 36.5254 42.1251 37.1989 44.0111C37.8724 45.8972 39.0073 47.5847 40.5 48.9198V63.9998L48.5 60.2118L56.5 63.9998V48.9198C57.7573 47.7986 58.7636 46.4244 59.453 44.8872C60.1423 43.35 60.4991 41.6845 60.5 39.9998ZM52.5 57.6798L48.5 55.7858L44.5 57.6798V51.2998C47.0853 52.2314 49.9147 52.2314 52.5 51.2998V57.6798ZM48.5 47.9998C46.9177 47.9998 45.371 47.5306 44.0554 46.6516C42.7398 45.7725 41.7144 44.5231 41.1089 43.0613C40.5034 41.5995 40.345 39.991 40.6537 38.4391C40.9624 36.8873 41.7243 35.4618 42.8431 34.343C43.9619 33.2242 45.3874 32.4622 46.9393 32.1536C48.4911 31.8449 50.0996 32.0033 51.5614 32.6088C53.0233 33.2143 54.2727 34.2397 55.1517 35.5553C56.0308 36.8709 56.5 38.4176 56.5 39.9998C56.4973 42.1208 55.6536 44.1541 54.1539 45.6538C52.6542 47.1535 50.6209 47.9972 48.5 47.9998Z" fill="#FDFDFF"/>
<path d="M50.5 10H44.5V8C44.4968 6.94011 44.0744 5.92453 43.3249 5.17507C42.5755 4.42561 41.5599 4.00317 40.5 4H24.5C23.4401 4.00317 22.4245 4.42561 21.6751 5.17507C20.9256 5.92453 20.5032 6.94011 20.5 8V10H14.5C13.4401 10.0032 12.4245 10.4256 11.6751 11.1751C10.9256 11.9245 10.5032 12.9401 10.5 14V56C10.5032 57.0599 10.9256 58.0755 11.6751 58.8249C12.4245 59.5744 13.4401 59.9968 14.5 60H32.5V56H14.5V14H20.5V20H44.5V14H50.5V24H54.5V14C54.4968 12.9401 54.0744 11.9245 53.3249 11.1751C52.5755 10.4256 51.5599 10.0032 50.5 10ZM40.5 16H24.5V8H40.5V16Z" fill="#FDFDFF"/>
</svg>
