<svg width="64" height="65" viewBox="0 0 64 65" fill="none" xmlns="http://www.w3.org/2000/svg">
<rect y="0.394531" width="64" height="64" rx="32" fill="#FFECD0"/>
<g filter="url(#filter0_d_791_189)">
<path fill-rule="evenodd" clip-rule="evenodd" d="M26.2734 28.457H37.7274V52.1592C37.7274 52.4482 37.4196 52.6332 37.1644 52.4976L32.0004 49.7542L26.8364 52.4976C26.5812 52.6332 26.2734 52.4482 26.2734 52.1592V28.457Z" fill="#12AAB5"/>
</g>
<mask id="mask0_791_189" style="mask-type:luminance" maskUnits="userSpaceOnUse" x="26" y="28" width="12" height="25">
<path fill-rule="evenodd" clip-rule="evenodd" d="M26.2734 28.457H37.7274V52.1592C37.7274 52.4482 37.4196 52.6332 37.1644 52.4976L32.0004 49.7542L26.8364 52.4976C26.5812 52.6332 26.2734 52.4482 26.2734 52.1592V28.457Z" fill="white"/>
</mask>
<g mask="url(#mask0_791_189)">
<path fill-rule="evenodd" clip-rule="evenodd" d="M29.1367 39.9102H34.8637V52.7959H29.1367V39.9102Z" fill="white"/>
</g>
<path fill-rule="evenodd" clip-rule="evenodd" d="M31.0992 12.6468C31.6365 12.2565 32.364 12.2565 32.9012 12.6468L46.7584 22.7147C47.2957 23.105 47.5205 23.7969 47.3153 24.4284L42.0223 40.7186C41.8171 41.3502 41.2285 41.7778 40.5645 41.7778H23.436C22.7719 41.7778 22.1834 41.3502 21.9781 40.7186L16.6852 24.4284C16.48 23.7969 16.7048 23.105 17.242 22.7147L31.0992 12.6468Z" fill="url(#paint0_linear_791_189)"/>
<mask id="mask1_791_189" style="mask-type:luminance" maskUnits="userSpaceOnUse" x="16" y="12" width="32" height="30">
<path fill-rule="evenodd" clip-rule="evenodd" d="M31.0992 12.6468C31.6365 12.2565 32.364 12.2565 32.9012 12.6468L46.7584 22.7147C47.2957 23.105 47.5205 23.7969 47.3153 24.4284L42.0223 40.7186C41.8171 41.3502 41.2285 41.7778 40.5645 41.7778H23.436C22.7719 41.7778 22.1834 41.3502 21.9781 40.7186L16.6852 24.4284C16.48 23.7969 16.7048 23.105 17.242 22.7147L31.0992 12.6468Z" fill="white"/>
</mask>
<g mask="url(#mask1_791_189)">
<path d="M33.4726 13.5039C32.5944 12.8659 31.4053 12.8659 30.5271 13.5039L18.2342 22.4353C17.356 23.0733 16.9885 24.2042 17.324 25.2366L22.0195 39.6878C22.3549 40.7202 23.3169 41.4191 24.4024 41.4191H39.5973C40.6828 41.4191 41.6448 40.7202 41.9803 39.6878L46.6758 25.2366C47.0112 24.2042 46.6437 23.0733 45.7656 22.4353L33.4726 13.5039Z" stroke="#E67515" stroke-width="0.383213"/>
<path d="M41.9805 39.6876L46.676 25.2363" stroke="#F68A2C" stroke-width="0.383213" stroke-linecap="round"/>
<path d="M17.3242 25.2363L22.0197 39.6876" stroke="#F68A2C" stroke-width="0.383213" stroke-linecap="round"/>
<path d="M46.6758 25.2366C47.0112 24.2042 46.6437 23.0733 45.7656 22.4353L33.4726 13.5039C32.5944 12.8659 31.4053 12.8659 30.5271 13.5039L18.2342 22.4353C17.356 23.0733 16.9885 24.2042 17.324 25.2366" stroke="#FAA953" stroke-width="0.383213" stroke-linecap="round"/>
<path opacity="0.3" d="M33.4728 13.5039C32.5946 12.8659 31.4055 12.8659 30.5273 13.5039L18.2344 22.4353" stroke="white" stroke-width="0.383213" stroke-linecap="round"/>
<path d="M30.5264 13.5039L27.4531 15.7367" stroke="white" stroke-width="0.383213" stroke-linecap="round"/>
</g>
<g filter="url(#filter1_d_791_189)">
<path fill-rule="evenodd" clip-rule="evenodd" d="M31.5484 17.3293C31.817 17.1341 32.1807 17.1341 32.4494 17.3293L42.4417 24.5891C42.7104 24.7843 42.8228 25.1302 42.7202 25.446L38.9034 37.1928C38.8008 37.5085 38.5065 37.7223 38.1745 37.7223H25.8233C25.4912 37.7223 25.1969 37.5085 25.0943 37.1928L21.2776 25.446C21.175 25.1302 21.2874 24.7843 21.556 24.5891L31.5484 17.3293Z" fill="url(#paint1_linear_791_189)"/>
<path d="M31.4355 17.1738C31.7712 16.93 32.2258 16.9303 32.5615 17.1738L42.5547 24.4346C42.8901 24.6785 43.0304 25.1104 42.9023 25.5049L39.0859 37.252C38.9577 37.6466 38.5897 37.9139 38.1748 37.9141H25.8232C25.4082 37.9141 25.0404 37.6467 24.9121 37.252L21.0957 25.5049C20.9676 25.1103 21.1078 24.6785 21.4434 24.4346L31.4355 17.1738Z" stroke="#E86A00" stroke-opacity="0.06" stroke-width="0.383213"/>
</g>
<mask id="mask2_791_189" style="mask-type:luminance" maskUnits="userSpaceOnUse" x="21" y="17" width="22" height="21">
<path fill-rule="evenodd" clip-rule="evenodd" d="M31.5484 17.3293C31.817 17.1341 32.1807 17.1341 32.4494 17.3293L42.4417 24.5891C42.7104 24.7843 42.8228 25.1302 42.7202 25.446L38.9034 37.1928C38.8008 37.5085 38.5065 37.7223 38.1745 37.7223H25.8233C25.4912 37.7223 25.1969 37.5085 25.0943 37.1928L21.2776 25.446C21.175 25.1302 21.2874 24.7843 21.556 24.5891L31.5484 17.3293Z" fill="white"/>
</mask>
<g mask="url(#mask2_791_189)">
<path fill-rule="evenodd" clip-rule="evenodd" d="M31.9989 28.4559L20.5449 31.3194V25.5924L31.9989 28.4559ZM31.9989 28.4559L34.8624 17.002H29.1354L31.9989 28.4559ZM31.9989 28.4559L43.4528 25.5924V31.3194L31.9989 28.4559ZM31.9989 28.4559L38.0732 18.3319L42.1228 22.3815L31.9989 28.4559ZM31.9989 28.4559L38.0732 38.5799L42.1228 34.5303L31.9989 28.4559ZM31.9989 28.4559L29.1354 39.9099H34.8624L31.9989 28.4559ZM31.9989 28.4559L25.9245 38.5799L21.8749 34.5303L31.9989 28.4559Z" fill="url(#paint2_linear_791_189)"/>
<path d="M25.9245 18.3319L21.8749 22.3815L31.9989 28.4559L25.9245 18.3319Z" fill="url(#paint3_linear_791_189)"/>
<path d="M30.2178 18.7402C29.7208 19.1013 29.337 19.3802 29.0664 19.5767" stroke="white" stroke-width="0.383213" stroke-linecap="round"/>
</g>
<g filter="url(#filter2_d_791_189)">
<path d="M30.1737 25.945L31.9994 23.2812L33.825 25.945L36.9225 26.8581L34.9533 29.4176L35.042 32.6457L31.9994 31.5637L28.9567 32.6457L29.0454 29.4176L27.0762 26.8581L30.1737 25.945Z" fill="white"/>
<path d="M31.999 22.8984C32.1254 22.8984 32.244 22.9603 32.3154 23.0645L34.0625 25.6152L37.0312 26.4902C37.1522 26.526 37.248 26.6193 37.2871 26.7393C37.3261 26.8594 37.3035 26.9916 37.2266 27.0918L35.3389 29.543L35.4248 32.6348C35.4283 32.7611 35.3698 32.8818 35.2676 32.9561C35.1654 33.0303 35.033 33.049 34.9141 33.0068L31.999 31.9697L29.085 33.0068C28.966 33.0491 28.8336 33.0302 28.7314 32.9561C28.6292 32.8818 28.5698 32.7611 28.5732 32.6348L28.6582 29.542L26.7725 27.0918C26.6954 26.9916 26.6729 26.8595 26.7119 26.7393C26.7511 26.6193 26.8467 26.5259 26.9678 26.4902L29.9346 25.6152L31.6836 23.0645L31.7451 22.9941C31.8143 22.9329 31.9045 22.8985 31.999 22.8984Z" stroke="white" stroke-width="0.766425" stroke-linejoin="round"/>
</g>
<g filter="url(#filter3_i_791_189)">
<path d="M30.1737 25.945L31.9994 23.2812L33.825 25.945L36.9225 26.8581L34.9533 29.4176L35.042 32.6457L31.9994 31.5637L28.9567 32.6457L29.0454 29.4176L27.0762 26.8581L30.1737 25.945Z" fill="url(#paint4_linear_791_189)"/>
</g>
<defs>
<filter id="filter0_d_791_189" x="25.507" y="28.457" width="12.986" height="25.6188" filterUnits="userSpaceOnUse" color-interpolation-filters="sRGB">
<feFlood flood-opacity="0" result="BackgroundImageFix"/>
<feColorMatrix in="SourceAlpha" type="matrix" values="0 0 0 0 0 0 0 0 0 0 0 0 0 0 0 0 0 0 127 0" result="hardAlpha"/>
<feOffset dy="0.766425"/>
<feGaussianBlur stdDeviation="0.383213"/>
<feColorMatrix type="matrix" values="0 0 0 0 0.333333 0 0 0 0 0.819608 0 0 0 0 0.615686 0 0 0 0.2 0"/>
<feBlend mode="darken" in2="BackgroundImageFix" result="effect1_dropShadow_791_189"/>
<feBlend mode="normal" in="SourceGraphic" in2="effect1_dropShadow_791_189" result="shape"/>
</filter>
<filter id="filter1_d_791_189" x="20.091" y="16.4156" width="23.8161" height="22.8395" filterUnits="userSpaceOnUse" color-interpolation-filters="sRGB">
<feFlood flood-opacity="0" result="BackgroundImageFix"/>
<feColorMatrix in="SourceAlpha" type="matrix" values="0 0 0 0 0 0 0 0 0 0 0 0 0 0 0 0 0 0 127 0" result="hardAlpha"/>
<feOffset dy="0.383213"/>
<feGaussianBlur stdDeviation="0.383213"/>
<feColorMatrix type="matrix" values="0 0 0 0 0.95 0 0 0 0 0.442079 0 0 0 0 0 0 0 0 0.8 0"/>
<feBlend mode="normal" in2="BackgroundImageFix" result="effect1_dropShadow_791_189"/>
<feBlend mode="normal" in="SourceGraphic" in2="effect1_dropShadow_791_189" result="shape"/>
</filter>
<filter id="filter2_d_791_189" x="25.5441" y="22.1324" width="12.9118" height="12.4293" filterUnits="userSpaceOnUse" color-interpolation-filters="sRGB">
<feFlood flood-opacity="0" result="BackgroundImageFix"/>
<feColorMatrix in="SourceAlpha" type="matrix" values="0 0 0 0 0 0 0 0 0 0 0 0 0 0 0 0 0 0 127 0" result="hardAlpha"/>
<feOffset dy="0.383213"/>
<feGaussianBlur stdDeviation="0.383213"/>
<feColorMatrix type="matrix" values="0 0 0 0 0.643137 0 0 0 0 0.262856 0 0 0 0 0.0196078 0 0 0 0.2 0"/>
<feBlend mode="normal" in2="BackgroundImageFix" result="effect1_dropShadow_791_189"/>
<feBlend mode="normal" in="SourceGraphic" in2="effect1_dropShadow_791_189" result="shape"/>
</filter>
<filter id="filter3_i_791_189" x="27.0762" y="23.2812" width="9.8457" height="9.74845" filterUnits="userSpaceOnUse" color-interpolation-filters="sRGB">
<feFlood flood-opacity="0" result="BackgroundImageFix"/>
<feBlend mode="normal" in="SourceGraphic" in2="BackgroundImageFix" result="shape"/>
<feColorMatrix in="SourceAlpha" type="matrix" values="0 0 0 0 0 0 0 0 0 0 0 0 0 0 0 0 0 0 127 0" result="hardAlpha"/>
<feOffset dy="0.383213"/>
<feGaussianBlur stdDeviation="0.191606"/>
<feComposite in2="hardAlpha" operator="arithmetic" k2="-1" k3="1"/>
<feColorMatrix type="matrix" values="0 0 0 0 0.921569 0 0 0 0 0.447059 0 0 0 0 0.105882 0 0 0 0.4 0"/>
<feBlend mode="normal" in2="shape" result="effect1_innerShadow_791_189"/>
</filter>
<linearGradient id="paint0_linear_791_189" x1="15.5352" y1="11.9922" x2="15.5352" y2="44.9223" gradientUnits="userSpaceOnUse">
<stop stop-color="#FD9C43"/>
<stop offset="1" stop-color="#F27E1D"/>
</linearGradient>
<linearGradient id="paint1_linear_791_189" x1="20.5449" y1="17.002" x2="20.5449" y2="39.9099" gradientUnits="userSpaceOnUse">
<stop stop-color="#FFD17B"/>
<stop offset="1" stop-color="#FBA152"/>
</linearGradient>
<linearGradient id="paint2_linear_791_189" x1="21.6134" y1="17.002" x2="21.6134" y2="37.7728" gradientUnits="userSpaceOnUse">
<stop stop-color="#F58425" stop-opacity="0.2"/>
<stop offset="1" stop-color="#F58425" stop-opacity="0.01"/>
</linearGradient>
<linearGradient id="paint3_linear_791_189" x1="21.6134" y1="17.002" x2="21.6134" y2="37.7728" gradientUnits="userSpaceOnUse">
<stop stop-color="#F58425" stop-opacity="0.2"/>
<stop offset="1" stop-color="#F58425" stop-opacity="0.01"/>
</linearGradient>
<linearGradient id="paint4_linear_791_189" x1="27.0762" y1="23.2812" x2="27.0762" y2="32.6457" gradientUnits="userSpaceOnUse">
<stop stop-color="#FD9B41"/>
<stop offset="1" stop-color="#F48224"/>
</linearGradient>
</defs>
</svg>
