<svg width="43" height="43" viewBox="0 0 43 43" fill="none" xmlns="http://www.w3.org/2000/svg">
<path d="M21.5 21.3945C20.0125 21.3945 18.7659 20.8917 17.7602 19.886C16.7546 18.8804 16.2512 17.6332 16.25 16.1445C16.25 14.6862 16.7534 13.4466 17.7602 12.4258C18.7671 11.4049 20.0137 10.8945 21.5 10.8945C22.9583 10.8945 24.1979 11.4049 25.2187 12.4258C26.2396 13.4466 26.75 14.6862 26.75 16.1445C26.75 17.632 26.2396 18.8792 25.2187 19.886C24.1979 20.8929 22.9583 21.3957 21.5 21.3945ZM11 30.1445V28.5695C11 27.957 11.1534 27.3813 11.4602 26.8423C11.7671 26.3033 12.1824 25.8728 12.7062 25.5508C14.0479 24.7633 15.4555 24.1654 16.929 23.757C18.4025 23.3487 19.9262 23.1445 21.5 23.1445C23.0738 23.1445 24.5981 23.3487 26.0727 23.757C27.5474 24.1654 28.9544 24.7633 30.2937 25.5508C30.8187 25.8716 31.2347 26.3021 31.5415 26.8423C31.8483 27.3824 32.0012 27.9582 32 28.5695V30.1445C32 30.6404 31.832 31.0563 31.496 31.3923C31.16 31.7283 30.7447 31.8957 30.25 31.8945H12.75C12.2542 31.8945 11.8388 31.7265 11.504 31.3905C11.1692 31.0545 11.0012 30.6392 11 30.1445ZM7.5 38.8945C6.5375 38.8945 5.71383 38.5521 5.029 37.8673C4.34417 37.1824 4.00117 36.3582 4 35.3945V30.1445C4 29.6487 4.168 29.2334 4.504 28.8985C4.84 28.5637 5.25533 28.3957 5.75 28.3945C6.24467 28.3934 6.66058 28.5614 6.99775 28.8985C7.33492 29.2357 7.50233 29.651 7.5 30.1445V35.3945H12.75C13.2458 35.3945 13.6617 35.5625 13.9977 35.8985C14.3337 36.2345 14.5012 36.6499 14.5 37.1445C14.4988 37.6392 14.3308 38.0551 13.996 38.3923C13.6612 38.7294 13.2458 38.8969 12.75 38.8945H7.5ZM4 12.6445V7.39453C4 6.43203 4.343 5.60836 5.029 4.92353C5.715 4.2387 6.53867 3.8957 7.5 3.89453H12.75C13.2458 3.89453 13.6617 4.06253 13.9977 4.39853C14.3337 4.73453 14.5012 5.14986 14.5 5.64453C14.4988 6.1392 14.3308 6.55511 13.996 6.89228C13.6612 7.22945 13.2458 7.39686 12.75 7.39453H7.5V12.6445C7.5 13.1404 7.332 13.5563 6.996 13.8923C6.66 14.2283 6.24467 14.3957 5.75 14.3945C5.25533 14.3934 4.84 14.2254 4.504 13.8905C4.168 13.5557 4 13.1404 4 12.6445ZM35.5 38.8945H30.25C29.7542 38.8945 29.3388 38.7265 29.004 38.3905C28.6692 38.0545 28.5012 37.6392 28.5 37.1445C28.4988 36.6499 28.6668 36.2345 29.004 35.8985C29.3412 35.5625 29.7565 35.3945 30.25 35.3945H35.5V30.1445C35.5 29.6487 35.668 29.2334 36.004 28.8985C36.34 28.5637 36.7553 28.3957 37.25 28.3945C37.7447 28.3934 38.1606 28.5614 38.4977 28.8985C38.8349 29.2357 39.0023 29.651 39 30.1445V35.3945C39 36.357 38.6576 37.1813 37.9727 37.8673C37.2879 38.5533 36.4637 38.8957 35.5 38.8945ZM35.5 12.6445V7.39453H30.25C29.7542 7.39453 29.3388 7.22653 29.004 6.89053C28.6692 6.55453 28.5012 6.1392 28.5 5.64453C28.4988 5.14986 28.6668 4.73453 29.004 4.39853C29.3412 4.06253 29.7565 3.89453 30.25 3.89453H35.5C36.4625 3.89453 37.2867 4.23753 37.9727 4.92353C38.6587 5.60953 39.0012 6.4332 39 7.39453V12.6445C39 13.1404 38.832 13.5563 38.496 13.8923C38.16 14.2283 37.7447 14.3957 37.25 14.3945C36.7553 14.3934 36.34 14.2254 36.004 13.8905C35.668 13.5557 35.5 13.1404 35.5 12.6445Z" fill="#0973F7"/>
</svg>
