<svg width="25" height="24" viewBox="0 0 25 24" fill="none" xmlns="http://www.w3.org/2000/svg">
<path d="M0.179688 24V18.3333L17.7797 0.766667C18.0463 0.522222 18.341 0.333333 18.6637 0.2C18.9863 0.0666668 19.325 0 19.6797 0C20.0343 0 20.3788 0.0666668 20.713 0.2C21.0472 0.333333 21.3361 0.533333 21.5797 0.8L23.413 2.66667C23.6797 2.91111 23.8743 3.2 23.997 3.53333C24.1197 3.86667 24.1806 4.2 24.1797 4.53333C24.1797 4.88889 24.1188 5.228 23.997 5.55067C23.8752 5.87333 23.6806 6.16756 23.413 6.43333L5.84635 24H0.179688ZM19.6463 6.4L21.513 4.53333L19.6463 2.66667L17.7797 4.53333L19.6463 6.4Z" fill="#0973F7"/>
</svg>
