<svg width="33" height="32" viewBox="0 0 33 32" fill="none" xmlns="http://www.w3.org/2000/svg">
<path d="M21.8183 16C20.5333 16 19.2908 15.4263 18.3183 14.385C17.3727 13.3694 16.7952 12.015 16.6933 10.5725C16.5845 9.03375 17.0539 7.61875 18.0145 6.5875C18.9752 5.55625 20.3183 5 21.8183 5C23.3077 5 24.6545 5.56625 25.612 6.595C26.5789 7.63375 27.0495 9.04625 26.9408 10.5719C26.8364 12.0162 26.2595 13.37 25.3158 14.3844C24.3458 15.4262 23.1039 16 21.8183 16ZM30.0577 27H13.5795C13.3146 27.0014 13.0529 26.942 12.8145 26.8264C12.5761 26.7108 12.3675 26.542 12.2045 26.3331C12.0317 26.1066 11.9124 25.844 11.8555 25.5649C11.7985 25.2857 11.8055 24.9973 11.8758 24.7213C12.402 22.6081 13.7058 20.8556 15.6458 19.6537C17.3677 18.5875 19.5595 18 21.8183 18C24.1214 18 26.2558 18.5625 27.9877 19.6281C29.932 20.8237 31.2377 22.5863 31.7614 24.725C31.8309 25.0013 31.837 25.2897 31.7795 25.5687C31.7219 25.8477 31.6021 26.11 31.4289 26.3363C31.2662 26.5442 31.058 26.7121 30.8203 26.8272C30.5826 26.9422 30.3217 27.0014 30.0577 27ZM10.0058 16.25C7.80641 16.25 5.87266 14.205 5.69329 11.6919C5.60454 10.4044 6.00579 9.21375 6.81829 8.34062C7.62204 7.47625 8.75579 7 10.0058 7C11.2558 7 12.3808 7.47875 13.1889 8.34813C14.0077 9.22813 14.4077 10.4162 14.3139 11.6931C14.1345 14.2056 12.2014 16.25 10.0058 16.25ZM14.1095 18.2156C13.0102 17.6781 11.5833 17.4094 10.0064 17.4094C8.16516 17.4094 6.37704 17.8894 4.97079 18.7606C3.37641 19.75 2.30391 21.1906 1.87079 22.93C1.8074 23.1802 1.80141 23.4415 1.85325 23.6943C1.90509 23.9471 2.01343 24.1849 2.17016 24.39C2.31888 24.5809 2.5094 24.7352 2.72708 24.8409C2.94476 24.9467 3.18379 25.0011 3.42579 25H10.3633C10.4804 25 10.5938 24.9589 10.6836 24.8838C10.7735 24.8088 10.8342 24.7046 10.8552 24.5894C10.862 24.55 10.8708 24.5106 10.8808 24.4719C11.4108 22.3431 12.6527 20.5444 14.4877 19.2331C14.5552 19.1845 14.6094 19.1198 14.6456 19.0448C14.6818 18.9699 14.6986 18.8871 14.6947 18.804C14.6908 18.7209 14.6662 18.6401 14.6232 18.5689C14.5802 18.4977 14.52 18.4383 14.4483 18.3962C14.3502 18.3387 14.2377 18.2781 14.1095 18.2156Z" fill="#6D7280"/>
</svg>
