<svg width="30" height="31" viewBox="0 0 30 31" fill="none" xmlns="http://www.w3.org/2000/svg">
<path d="M20 22.1446V24.6446H2.5V22.1446C2.5 22.1446 2.5 17.1446 11.25 17.1446C20 17.1446 20 22.1446 20 22.1446ZM15.625 10.2696C15.625 9.40428 15.3684 8.55842 14.8877 7.83896C14.4069 7.11949 13.7237 6.55874 12.9242 6.2276C12.1248 5.89647 11.2451 5.80983 10.3965 5.97864C9.54781 6.14745 8.76826 6.56413 8.15641 7.17599C7.54455 7.78784 7.12787 8.56739 6.95906 9.41606C6.79025 10.2647 6.87689 11.1444 7.20803 11.9438C7.53916 12.7432 8.09992 13.4265 8.81938 13.9073C9.53885 14.388 10.3847 14.6446 11.25 14.6446C12.4103 14.6446 13.5231 14.1836 14.3436 13.3632C15.1641 12.5427 15.625 11.4299 15.625 10.2696ZM19.925 17.1446C20.6934 17.7393 21.3222 18.4951 21.7671 19.359C22.212 20.2228 22.4621 21.1736 22.5 22.1446V24.6446H27.5V22.1446C27.5 22.1446 27.5 17.6071 19.925 17.1446ZM18.75 5.89458C17.8897 5.89058 17.0485 6.14774 16.3375 6.63208C17.0968 7.693 17.5051 8.96493 17.5051 10.2696C17.5051 11.5742 17.0968 12.8462 16.3375 13.9071C17.0485 14.3914 17.8897 14.6486 18.75 14.6446C19.9103 14.6446 21.0231 14.1836 21.8436 13.3632C22.6641 12.5427 23.125 11.4299 23.125 10.2696C23.125 9.10926 22.6641 7.99646 21.8436 7.17599C21.0231 6.35551 19.9103 5.89458 18.75 5.89458Z" fill="#101828"/>
</svg>
