<svg width="30" height="31" viewBox="0 0 30 31" fill="none" xmlns="http://www.w3.org/2000/svg">
<path d="M15 28.3945C13.2708 28.3945 11.6458 28.0662 10.125 27.4095C8.60417 26.7529 7.28125 25.8624 6.15625 24.7383C5.03125 23.6141 4.14084 22.2912 3.485 20.7695C2.82917 19.2479 2.50083 17.6229 2.5 15.8945C2.49917 14.1662 2.8275 12.5412 3.485 11.0195C4.1425 9.49787 5.03292 8.17495 6.15625 7.05078C7.27958 5.92661 8.6025 5.0362 10.125 4.37953C11.6475 3.72286 13.2725 3.39453 15 3.39453C16.7275 3.39453 18.3525 3.72286 19.875 4.37953C21.3975 5.0362 22.7204 5.92661 23.8438 7.05078C24.9671 8.17495 25.8579 9.49787 26.5163 11.0195C27.1746 12.5412 27.5025 14.1662 27.5 15.8945C27.4975 17.6229 27.1692 19.2479 26.515 20.7695C25.8608 22.2912 24.9704 23.6141 23.8438 24.7383C22.7171 25.8624 21.3942 26.7533 19.875 27.4108C18.3558 28.0683 16.7308 28.3962 15 28.3945ZM15 25.8945C17.7917 25.8945 20.1562 24.9258 22.0938 22.9883C24.0312 21.0508 25 18.6862 25 15.8945C25 15.7487 24.995 15.5974 24.985 15.4408C24.975 15.2841 24.9696 15.1541 24.9688 15.0508C24.8646 15.6549 24.5833 16.1549 24.125 16.5508C23.6667 16.9466 23.125 17.1445 22.5 17.1445H20C19.3125 17.1445 18.7242 16.8999 18.235 16.4108C17.7458 15.9216 17.5008 15.3329 17.5 14.6445V13.3945H12.5V10.8945C12.5 10.207 12.745 9.6187 13.235 9.12953C13.725 8.64036 14.3133 8.39536 15 8.39453H16.25C16.25 7.91536 16.3804 7.4937 16.6413 7.12953C16.9021 6.76536 17.2196 6.46828 17.5938 6.23828C17.1771 6.13411 16.7554 6.05078 16.3288 5.98828C15.9021 5.92578 15.4592 5.89453 15 5.89453C12.2083 5.89453 9.84375 6.86328 7.90625 8.80078C5.96875 10.7383 5 13.1029 5 15.8945H11.25C12.625 15.8945 13.8021 16.3841 14.7813 17.3633C15.7604 18.3424 16.25 19.5195 16.25 20.8945V22.1445H12.5V25.582C12.9167 25.6862 13.3283 25.7645 13.735 25.817C14.1417 25.8695 14.5633 25.8954 15 25.8945Z" fill="#101828"/>
</svg>
