<svg width="43" height="43" viewBox="0 0 43 43" fill="none" xmlns="http://www.w3.org/2000/svg">
<path d="M35.0464 7.41602C35.0735 7.42012 34.9758 7.42373 34.7746 7.42373C33.2561 7.42373 31.8395 9.06927 31.8395 11.3202C31.8395 12.4547 32.2261 13.4701 32.7931 14.1733L33.6312 15.209L32.3136 15.4116C31.4473 15.5442 30.8647 15.9392 30.3756 16.5881C29.8865 17.237 29.5271 18.1615 29.2887 19.2413C28.8633 21.1684 28.8301 23.5418 28.8273 25.6525H31.3241L31.3728 26.3679L31.9547 35.1118H37.3534L38.0121 26.3599L38.066 25.6525H40.691C40.6713 23.5703 40.5581 21.2283 40.0886 19.3155C39.825 18.2421 39.4501 17.3178 38.9658 16.6598C38.4814 16.0019 37.924 15.6057 37.1559 15.4627L35.8664 15.2218L36.7099 14.2169C37.3028 13.5095 37.7095 12.4829 37.7095 11.3201C37.7095 9.20864 36.438 7.59542 35.0616 7.41856L35.0461 7.4161L35.0464 7.41602ZM14.9692 7.69287C11.204 7.69336 6.77891 8.13362 1.71094 9.16164V10.7306C23.6968 7.64226 29.7283 13.8601 20.2705 17.2393C10.646 20.678 3.00268 37.9323 33.3468 39.4364C33.7046 39.4723 34.0728 39.4928 34.4489 39.4928C36.2766 39.4928 37.9221 39.0455 39.053 38.3776C40.1839 37.7099 40.7424 36.8896 40.7424 36.0886C40.7424 35.2875 40.1839 34.4673 39.053 33.7994C39.0342 33.7881 39.0135 33.7771 38.9942 33.7659L38.8302 35.9373L38.7763 36.6474H30.5192L30.4731 35.9296L30.204 31.869C19.6881 32.0987 16.8119 23.6241 23.6338 21.1664C25.306 20.564 26.676 19.8674 27.7507 19.1132C27.7646 19.0457 27.7769 18.9774 27.7917 18.9106C28.0593 17.6986 28.469 16.5728 29.1529 15.6652C29.5587 15.1269 30.075 14.6751 30.6886 14.3552C30.4323 10.865 25.0829 7.69131 14.9692 7.69287H14.9692Z" fill="#0973F7"/>
</svg>
