<svg width="42" height="43" viewBox="0 0 42 43" fill="none" xmlns="http://www.w3.org/2000/svg">
<g clip-path="url(#clip0_885_339)">
<path d="M9.33398 22.5618V13.2285H5.83398C4.90573 13.2285 4.01549 13.5973 3.35911 14.2536C2.70273 14.91 2.33398 15.8003 2.33398 16.7285V37.7285C2.33572 37.9452 2.39776 38.1571 2.51316 38.3405C2.62855 38.5239 2.79274 38.6715 2.98732 38.7668C3.17478 38.8521 3.38146 38.8862 3.58637 38.8657C3.79128 38.8452 3.98712 38.7709 4.15398 38.6502L10.1623 34.2285H25.8423C26.2845 34.2416 26.7246 34.1637 27.1355 33.9998C27.5464 33.8358 27.9192 33.5893 28.2309 33.2754C28.5426 32.9615 28.7866 32.5869 28.9476 32.1749C29.1087 31.7629 29.1835 31.3223 29.1673 30.8802V29.5618H16.334C14.4775 29.5618 12.697 28.8243 11.3842 27.5116C10.0715 26.1988 9.33398 24.4184 9.33398 22.5618Z" fill="#0973F7"/>
<path d="M36.1673 5.06055H16.334C15.4057 5.06055 14.5155 5.4293 13.8591 6.08567C13.2027 6.74205 12.834 7.63229 12.834 8.56055V22.5605C12.834 23.4888 13.2027 24.379 13.8591 25.0354C14.5155 25.6918 15.4057 26.0605 16.334 26.0605H32.1423L37.719 30.3889C37.8848 30.5114 38.0801 30.5879 38.285 30.6104C38.4899 30.633 38.6972 30.6008 38.8856 30.5172C39.0842 30.4227 39.2519 30.2739 39.3696 30.0881C39.4873 29.9024 39.55 29.6871 39.5506 29.4672V8.56055C39.5512 7.65215 39.1985 6.77915 38.5671 6.12602C37.9358 5.4729 37.0752 5.09083 36.1673 5.06055Z" fill="#0973F7"/>
</g>
<defs>
<clipPath id="clip0_885_339">
<rect width="42" height="42" fill="white" transform="translate(0 0.394531)"/>
</clipPath>
</defs>
</svg>
