<svg width="43" height="43" viewBox="0 0 43 43" fill="none" xmlns="http://www.w3.org/2000/svg">
<path d="M39.25 14.6786V14.8063C39.25 16.3113 39.25 17.0656 38.8878 17.6816C38.5255 18.2976 37.8658 18.6633 36.5498 19.3966L35.162 20.1666C36.1175 16.9326 36.4378 13.4571 36.555 10.4856L36.5725 10.0988L36.576 10.0078C37.7153 10.4033 38.3558 10.6991 38.7548 11.2521C39.25 11.9398 39.25 12.8533 39.25 14.6786ZM4.25 14.6786V14.8063C4.25 16.3113 4.25 17.0656 4.61225 17.6816C4.9745 18.2976 5.63425 18.6633 6.95025 19.3966L8.33975 20.1666C7.3825 16.9326 7.06225 13.4571 6.945 10.4856L6.9275 10.0988L6.92575 10.0078C5.78475 10.4033 5.14425 10.6991 4.74525 11.2521C4.25 11.9398 4.25 12.8551 4.25 14.6786Z" fill="#0973F7"/>
<path fill-rule="evenodd" clip-rule="evenodd" d="M21.7495 3.89493C24.8715 3.89493 27.4422 4.16968 29.4092 4.50218C31.4025 4.83818 32.3982 5.00618 33.2312 6.03168C34.0642 7.05718 34.0187 8.16493 33.9312 10.3804C33.6302 17.9912 31.9887 27.4954 23.062 28.3354V34.5199H25.5645C25.9689 34.5202 26.3607 34.6605 26.6734 34.917C26.986 35.1735 27.2002 35.5304 27.2795 35.9269L27.612 37.5824H32.2495C32.5976 37.5824 32.9314 37.7207 33.1775 37.9668C33.4237 38.213 33.562 38.5468 33.562 38.8949C33.562 39.243 33.4237 39.5769 33.1775 39.823C32.9314 40.0691 32.5976 40.2074 32.2495 40.2074H11.2495C10.9014 40.2074 10.5675 40.0691 10.3214 39.823C10.0752 39.5769 9.93696 39.243 9.93696 38.8949C9.93696 38.5468 10.0752 38.213 10.3214 37.9668C10.5675 37.7207 10.9014 37.5824 11.2495 37.5824H15.887L16.2195 35.9269C16.2987 35.5304 16.5129 35.1735 16.8256 34.917C17.1382 34.6605 17.5301 34.5202 17.9345 34.5199H20.437V28.3354C11.512 27.4954 9.87046 17.9894 9.56946 10.3804C9.48021 8.16493 9.43646 7.05543 10.2695 6.03168C11.1007 5.00618 12.0965 4.83818 14.0897 4.50218C16.6217 4.08742 19.1838 3.8843 21.7495 3.89493ZM23.4155 11.2432L23.244 10.9352C22.579 9.73993 22.2465 9.14493 21.7495 9.14493C21.2525 9.14493 20.92 9.73993 20.255 10.9352L20.0835 11.2432C19.8945 11.5827 19.8 11.7507 19.653 11.8627C19.5042 11.9747 19.3205 12.0167 18.953 12.0989L18.6205 12.1759C17.329 12.4682 16.6832 12.6134 16.5292 13.1069C16.3752 13.6004 16.8162 14.1167 17.6965 15.1457L17.924 15.4117C18.1742 15.7039 18.3002 15.8492 18.3562 16.0312C18.4122 16.2132 18.393 16.4074 18.3562 16.7977L18.3212 17.1529C18.1882 18.5267 18.1217 19.2144 18.5225 19.5189C18.925 19.8234 19.5305 19.5452 20.7397 18.9887L21.0512 18.8452C21.396 18.6877 21.5675 18.6089 21.7495 18.6089C21.9315 18.6089 22.103 18.6877 22.4477 18.8452L22.7592 18.9887C23.9685 19.5469 24.574 19.8234 24.9765 19.5189C25.379 19.2144 25.3107 18.5267 25.1777 17.1529L25.1427 16.7977C25.106 16.4074 25.0867 16.2132 25.1427 16.0312C25.1987 15.8492 25.3247 15.7039 25.575 15.4117L25.8025 15.1457C26.6827 14.1167 27.1237 13.6022 26.9697 13.1069C26.8157 12.6134 26.17 12.4682 24.8785 12.1759L24.546 12.0989C24.1785 12.0167 23.9947 11.9764 23.846 11.8627C23.699 11.7507 23.6045 11.5827 23.4155 11.2432Z" fill="#0973F7"/>
</svg>
