<svg width="33" height="32" viewBox="0 0 33 32" fill="none" xmlns="http://www.w3.org/2000/svg">
<path d="M26.2177 28.7999L22.3177 24.9332L19.3844 27.8665L18.451 26.9332C17.9399 26.4221 17.6844 25.7888 17.6844 25.0332C17.6844 24.2776 17.9399 23.6443 18.451 23.1332L24.0844 17.4999C24.5955 16.9888 25.2288 16.7332 25.9844 16.7332C26.7399 16.7332 27.3733 16.9888 27.8844 17.4999L28.8177 18.4332L25.8844 21.3665L29.751 25.2665C30.0177 25.5332 30.151 25.8443 30.151 26.1999C30.151 26.5554 30.0177 26.8665 29.751 27.1332L28.0844 28.7999C27.8177 29.0665 27.5066 29.1999 27.151 29.1999C26.7955 29.1999 26.4844 29.0665 26.2177 28.7999ZM30.151 7.86654L15.0177 22.9999L15.1844 23.1332C15.6955 23.6443 15.951 24.2776 15.951 25.0332C15.951 25.7888 15.6955 26.4221 15.1844 26.9332L14.251 27.8665L11.3177 24.9332L7.41771 28.7999C7.15104 29.0665 6.83993 29.1999 6.48438 29.1999C6.12882 29.1999 5.81771 29.0665 5.55104 28.7999L3.88437 27.1332C3.61771 26.8665 3.48438 26.5554 3.48438 26.1999C3.48438 25.8443 3.61771 25.5332 3.88437 25.2665L7.75104 21.3665L4.81771 18.4332L5.75104 17.4999C6.26215 16.9888 6.89549 16.7332 7.65104 16.7332C8.4066 16.7332 9.03993 16.9888 9.55104 17.4999L9.68438 17.6665L24.8177 2.5332H30.151V7.86654ZM10.0844 14.4665L3.48438 7.86654V2.5332H8.81771L15.4177 9.1332L10.0844 14.4665Z" fill="#6D7280"/>
</svg>
